Coordinates
version=1
nRows=26
nColumns=24
inDegrees=yes

Units are S.I. units (second, meters, Newtons, ...)
Angles are in degrees.

endheader
time	pelvis_tilt	pelvis_list	pelvis_rotation	pelvis_tx	pelvis_ty	pelvis_tz	hip_flexion_r	hip_adduction_r	hip_rotation_r	knee_angle_r	ankle_angle_r	subtalar_angle_r	mtp_angle_r	hip_flexion_l	hip_adduction_l	hip_rotation_l	knee_angle_l	ankle_angle_l	subtalar_angle_l	mtp_angle_l	lumbar_extension	lumbar_bending	lumbar_rotation
      2.36000000	     61.91708043	      5.81045400	      9.01664809	      0.77144006	      1.08231007	     -0.27308123	     -4.75427347	    -13.40362205	     -4.63712635	    -52.03147474	    -16.56680570	      1.00280597	     46.67828998	     16.15764236	    -14.36058215	      8.97834022	    -15.48018700	    -20.29074220	     12.72783789	    -31.64801320	      0.00000000	      0.00000000	      0.00000000
      2.37000000	     61.91710647	      5.81003852	      9.01915119	      0.77143593	      1.08230594	     -0.27308167	     -4.75477725	    -13.40151310	     -4.63810477	    -52.03322537	    -16.56336992	      1.00718966	     46.65565940	     16.16292816	    -14.36161123	      8.96951858	    -15.48445291	    -20.28963123	     12.73023932	    -31.64882566	      0.00000000	      0.00000000	      0.00000000
      2.38000000	     61.91797220	      5.80937900	      9.02132135	      0.77143034	      1.08230619	     -0.27308623	     -4.75669982	    -13.39899939	     -4.63928341	    -52.03422772	    -16.55934724	      1.01205530	     46.62981512	     16.16745740	    -14.36245702	      8.96037600	    -15.48858964	    -20.28741753	     12.73409838	    -31.64172200	      0.00000000	      0.00000000	      0.00000000
      2.39000000	     61.91952702	      5.80844923	      9.02287301	      0.77142418	      1.08231162	     -0.27309235	     -4.75975059	    -13.39639504	     -4.64087366	    -52.03470113	    -16.55482278	      1.01658150	     46.60222902	     16.17085892	    -14.36308901	      8.95116965	    -15.49184880	    -20.28388276	     12.74007049	    -31.62686012	      0.00000000	      0.00000000	      0.00000000
      2.40000000	     61.92171196	      5.80739792	      9.02379223	      0.77142191	      1.08231911	     -0.27309740	     -4.76340450	    -13.39405804	     -4.64287735	    -52.03482449	    -16.54999936	      1.02002393	     46.57461558	     16.17302797	    -14.36367791	      8.94192408	    -15.49369902	    -20.27892634	     12.74808617	    -31.60516663	      0.00000000	      0.00000000	      0.00000000
      2.41000000	     61.92449876	      5.80657453	      9.02410974	      0.77142371	      1.08232760	     -0.27310088	     -4.76712731	    -13.39225113	     -4.64508125	    -52.03486940	    -16.54521146	      1.02191482	     46.54879564	     16.17418965	    -14.36445651	      8.93248429	    -15.49396696	    -20.27270345	     12.75726226	    -31.57826328	      0.00000000	      0.00000000	      0.00000000
      2.42000000	     61.92767081	      5.80616617	      9.02376574	      0.77142598	      1.08233714	     -0.27310263	     -4.77056666	    -13.39103168	     -4.64716286	    -52.03527343	    -16.54091133	      1.02220175	     46.52653553	     16.17463027	    -14.36544042	      8.92265849	    -15.49286865	    -20.26567982	     12.76606695	    -31.54830328	      0.00000000	      0.00000000	      0.00000000
      2.43000000	     61.93090889	      5.80605171	      9.02268812	      0.77142743	      1.08234687	     -0.27310148	     -4.77351063	    -13.39022706	     -4.64881875	    -52.03647073	    -16.53760563	      1.02125878	     46.50938144	     16.17448622	    -14.36639836	      8.91243901	    -15.49081266	    -20.25852900	     12.77267537	    -31.51773548	      0.00000000	      0.00000000	      0.00000000
      2.44000000	     61.93405747	      5.80610476	      9.02099673	      0.77142764	      1.08235532	     -0.27309635	     -4.77578423	    -13.38952613	     -4.64983019	    -52.03861862	    -16.53574698	      1.01975473	     46.49850389	     16.17379530	    -14.36721184	      8.90221668	    -15.48803721	    -20.25191004	     12.77541762	    -31.48902747	      0.00000000	      0.00000000	      0.00000000
      2.45000000	     61.93708505	      5.80634344	      9.01916794	      0.77142484	      1.08236053	     -0.27308782	     -4.77725989	    -13.38867157	     -4.65006775	    -52.04146239	    -16.53560148	      1.01841498	     46.49456370	     16.17247447	    -14.36818375	      8.89286280	    -15.48442177	    -20.24627791	     12.77324472	    -31.46438662	      0.00000000	      0.00000000	      0.00000000
      2.46000000	     61.93983096	      5.80664128	      9.01791927	      0.77142090	      1.08236189	     -0.27307861	     -4.77792416	    -13.38762279	     -4.64952779	    -52.04442586	    -16.53713407	      1.01774650	     46.49761361	     16.17019229	    -14.36988466	      8.88559302	    -15.47967019	    -20.24181915	     12.76609868	    -31.44551796	      0.00000000	      0.00000000	      0.00000000
      2.47000000	     61.94198137	      5.80655369	      9.01772254	      0.77142061	      1.08236255	     -0.27307154	     -4.77791696	    -13.38651973	     -4.64843431	    -52.04685369	    -16.53997906	      1.01783983	     46.50705368	     16.16654189	    -14.37268691	      8.88161849	    -15.47367942	    -20.23844417	     12.75502333	    -31.43345273	      0.00000000	      0.00000000	      0.00000000
      2.48000000	     61.94334992	      5.80571075	      9.01834096	      0.77142358	      1.08236577	     -0.27306732	     -4.77749402	    -13.38546349	     -4.64728072	    -52.04823195	    -16.54352687	      1.01836058	     46.52165815	     16.16151680	    -14.37647619	      8.88172433	    -15.46680115	    -20.23578630	     12.74193225	    -31.42846873	      0.00000000	      0.00000000	      0.00000000
      2.49000000	     61.94409458	      5.80424858	      9.01899362	      0.77142483	      1.08236940	     -0.27306576	     -4.77688084	    -13.38447008	     -4.64663227	    -52.04827028	    -16.54709146	      1.01873856	     46.53968612	     16.15570388	    -14.38078890	      8.88596259	    -15.45987475	    -20.23327375	     12.72912213	    -31.43010735	      0.00000000	      0.00000000	      0.00000000
      2.50000000	     61.94455540	      5.80264183	      9.01902456	      0.77142307	      1.08236966	     -0.27306539	     -4.77615779	    -13.38371601	     -4.64674017	    -52.04687168	    -16.55008104	      1.01844469	     46.55907570	     16.14994865	    -14.38510134	      8.89358554	    -15.45405485	    -20.23031683	     12.71871634	    -31.43727994	      0.00000000	      0.00000000	      0.00000000
      2.51000000	     61.94483862	      5.80132859	      9.01827989	      0.77142252	      1.08236711	     -0.27306372	     -4.77535341	    -13.38360377	     -4.64732843	    -52.04406689	    -16.55211134	      1.01721824	     46.57769879	     16.14494476	    -14.38897236	      8.90325543	    -15.45048074	    -20.22654176	     12.71220485	    -31.44844015	      0.00000000	      0.00000000	      0.00000000
      2.52000000	     61.94467870	      5.80061350	      9.01691174	      0.77142612	      1.08236325	     -0.27306040	     -4.77461899	    -13.38447973	     -4.64774838	    -52.03993902	    -16.55305761	      1.01515648	     46.59363314	     16.14121075	    -14.39203806	      8.91343924	    -15.44988632	    -20.22197934	     12.71019255	    -31.46178529	      0.00000000	      0.00000000	      0.00000000
      2.53000000	     61.94380771	      5.80069083	      9.01507104	      0.77143050	      1.08235817	     -0.27305664	     -4.77419605	    -13.38636957	     -4.64731262	    -52.03453994	    -16.55305066	      1.01265099	     46.60540188	     16.13928859	    -14.39397672	      8.92279476	    -15.45243925	    -20.21718740	     12.71239873	    -31.47545216	      0.00000000	      0.00000000	      0.00000000
      2.54000000	     61.94229810	      5.80167855	      9.01290168	      0.77143202	      1.08235318	     -0.27305302	     -4.77419097	    -13.38894842	     -4.64557574	    -52.02786995	    -16.55239842	      1.01020718	     46.61214018	     16.13964183	    -14.39464920	      8.93038628	    -15.45794843	    -20.21326170	     12.71786326	    -31.48769340	      0.00000000	      0.00000000	      0.00000000
      2.55000000	     61.94045029	      5.80358666	      9.01072112	      0.77143228	      1.08235063	     -0.27304908	     -4.77450352	    -13.39175694	     -4.64244711	    -52.02002729	    -16.55143501	      1.00820570	     46.61366925	     16.14232532	    -14.39435258	      8.93568988	    -15.46607761	    -20.21160281	     12.72526603	    -31.49703573	      0.00000000	      0.00000000	      0.00000000
      2.56000000	     61.93848855	      5.80621189	      9.00902789	      0.77143221	      1.08235079	     -0.27304387	     -4.77499145	    -13.39446507	     -4.63817768	    -52.01144768	    -16.55036629	      1.00670955	     46.61047388	     16.14687265	    -14.39382543	      8.93843754	    -15.47628979	    -20.21341251	     12.73326885	    -31.50241600	      0.00000000	      0.00000000	      0.00000000
      2.57000000	     61.93653213	      5.80916776	      9.00823306	      0.77142980	      1.08234997	     -0.27303787	     -4.77558639	    -13.39688057	     -4.63335059	    -52.00297722	    -16.54921522	      1.00544132	     46.60358727	     16.15251633	    -14.39385766	      8.93840121	    -15.48766467	    -20.21910733	     12.74079686	    -31.50327195	      0.00000000	      0.00000000	      0.00000000
      2.58000000	     61.93481536	      5.81203887	      9.00841304	      0.77142606	      1.08234511	     -0.27303319	     -4.77628765	    -13.39885072	     -4.62880893	    -51.99566659	    -16.54790199	      1.00395215	     46.59440286	     16.15856277	    -14.39486720	      8.93526184	    -15.49881654	    -20.22791743	     12.74719073	    -31.49956026	      0.00000000	      0.00000000	      0.00000000
      2.59000000	     61.93373660	      5.81450775	      9.00939680	      0.77142470	      1.08234009	     -0.27303129	     -4.77712383	    -13.40035320	     -4.62540008	    -51.99036942	    -16.54637633	      1.00186932	     46.58445541	     16.16458409	    -14.39688711	      8.92865193	    -15.50814459	    -20.23791966	     12.75220419	    -31.49169346	      0.00000000	      0.00000000	      0.00000000
      2.60000000	     61.93362480	      5.81636156	      9.01100822	      0.77142729	      1.08234147	     -0.27303167	     -4.77810579	    -13.40155831	     -4.62368769	    -51.98736536	    -16.54469946	      0.99908319	     46.57521569	     16.17029976	    -14.39974298	      8.91832270	    -15.51438800	    -20.24659225	     12.75588459	    -31.48041425	      0.00000000	      0.00000000	      0.00000000
      2.61000000	     61.93443333	      5.81743807	      9.01312852	      0.77143248	      1.08234885	     -0.27303356	     -4.77924694	    -13.40263263	     -4.62380732	    -51.98628218	    -16.54305288	      0.99580360	     46.56792248	     16.17538279	    -14.40309970	      8.90435274	    -15.51705934	    -20.25167062	     12.75840738	    -31.46664797	      0.00000000	      0.00000000	      0.00000000
